<svg id="Слой_1" data-name="Слой 1" xmlns="http://www.w3.org/2000/svg" viewBox="0 0 592.79 762.87"><defs><style>.cls-1{fill:#ddc831;}.cls-2{fill:#b5a428;}</style></defs><path class="cls-1" d="M376.13,401.62q5.31,5.58,10.64,11.15l-42.83.18c-.42-1.09-.85-2.18-1.26-3.27l-20.15,0c.24,1.11.48,2.22.71,3.32l-15.1.07-44.95.18-28.15.12L249.58,400l43.08.55a.36.36,0,0,1,0,.09l18,.19a.09.09,0,0,0,0,0l9.87.13v0l12.7.14Z"/><path class="cls-1" d="M376.76,498H341.47q-4.44-20.78-8.91-41.54-4.67-21.69-9.32-43.41l20.7-.09q7.41,19.38,14.89,38.74Q367.77,474.85,376.76,498Z"/><path class="cls-1" d="M343.94,413l-20.7.09c-.23-1.1-.47-2.21-.71-3.32l20.15,0C343.09,410.77,343.52,411.86,343.94,413Z"/><path class="cls-2" d="M332.56,456.45Q337,477.23,341.47,498l-44-35.14c0-.06,0-.11,0-.16l.23-1.11L301.94,442c.27-1.27.55-2.54.82-3.81Q317.65,447.33,332.56,456.45Z"/><path class="cls-1" d="M315.84,354.09l5.08-.06q4.31,11.16,8.64,22.3,4.85,12.41,9.69,24.81l-6.05-.06-12.7-.16q-2.43-11.43-4.87-22.84c0-.13.06-.26.08-.38q-2.59-11.83-5.2-23.67l5.2.06Z"/><path class="cls-1" d="M333.2,401.08l-12.7-.14v0Z"/><path class="cls-2" d="M310.51,354q2.61,11.84,5.2,23.67c0,.12,0,.25-.08.38Q313.07,366.05,310.51,354Z"/><path class="cls-2" d="M310.51,354q2.57,12,5.12,24.05-2.5,11.35-5,22.71l-18-.23Q297.25,388.35,302,376,306.23,365,310.51,354Z"/><path class="cls-2" d="M310.63,400.79a.09.09,0,0,1,0,0l-18-.19a.36.36,0,0,0,0-.09Z"/><path class="cls-2" d="M308.14,413.11l-5.38,25.1-.19-.11q-2.52,12.28-5.05,24.59c0,.05,0,.1,0,.16l-7.5,35-35.31.12Q265.1,472.73,275,446.37h0l.33-.91c0-.06.05-.13.08-.2q3.38-9,6.68-18.07a.17.17,0,0,0,0-.05c.21-.58.43-1.16.64-1.73h0c1.48-4.08,2.94-8.16,4.38-12.21Q297.65,413.14,308.14,413.11Z"/><path class="cls-2" d="M302.76,438.21c-.27,1.27-.55,2.54-.82,3.81l-4.19,19.56-.23,1.11q2.52-12.3,5.05-24.59Z"/><path class="cls-2" d="M282.79,425.42c-.21.57-.43,1.15-.64,1.73l.63-1.74Z"/><path class="cls-2" d="M282.78,425.41l-.63,1.74a.17.17,0,0,1,0,.05q-3.35,9-6.68,18.07c0,.07-.05.14-.08.2-.11.3-.22.6-.34.9l-40-33,28.15-.12Z"/><path class="cls-2" d="M275,446.37c.12-.3.23-.6.34-.9l-.33.91Z"/></svg>